<svg xmlns="http://www.w3.org/2000/svg" width="48" height="48" viewBox="0 0 48 48" fill="none">
  <circle cx="24" cy="24" r="24" fill="#E8F5E9"/>
  <path d="M24 10C19.0294 10 15 14.0294 15 19C15 21.9823 16.5274 24.5999 18.9211 26.0127C16.0572 27.5217 14 30.5546 14 34H16C16 30.134 19.134 27 23 27H25C28.866 27 32 30.134 32 34H34C34 30.5546 31.9428 27.5217 29.0789 26.0127C31.4726 24.5999 33 21.9823 33 19C33 14.0294 28.9706 10 24 10Z" fill="#4CAF50"/>
  <path d="M24 12C20.134 12 17 15.134 17 19C17 22.866 20.134 26 24 26C27.866 26 31 22.866 31 19C31 15.134 27.866 12 24 12ZM24 24C21.2386 24 19 21.7614 19 19C19 16.2386 21.2386 14 24 14C26.7614 14 29 16.2386 29 19C29 21.7614 26.7614 24 24 24Z" fill="#43A047"/>
  <path d="M20 35H28V37C28 39.2091 26.2091 41 24 41C21.7909 41 20 39.2091 20 37V35Z" fill="#4CAF50"/>
  <path d="M24 13C21.7909 13 20 14.7909 20 17C20 17.5523 20.4477 18 21 18C21.5523 18 22 17.5523 22 17C22 15.8954 22.8954 15 24 15C25.1046 15 26 15.8954 26 17C26 17.5523 26.4477 18 27 18C27.5523 18 28 17.5523 28 17C28 14.7909 26.2091 13 24 13Z" fill="#2E7D32"/>
  <path d="M22 19C22 18.4477 21.5523 18 21 18C20.4477 18 20 18.4477 20 19C20 19.5523 20.4477 20 21 20C21.5523 20 22 19.5523 22 19Z" fill="#1B5E20"/>
  <path d="M28 19C28 18.4477 27.5523 18 27 18C26.4477 18 26 18.4477 26 19C26 19.5523 26.4477 20 27 20C27.5523 20 28 19.5523 28 19Z" fill="#1B5E20"/>
  <path d="M24 21C23.4477 21 23 21.4477 23 22C23 22.5523 23.4477 23 24 23C24.5523 23 25 22.5523 25 22C25 21.4477 24.5523 21 24 21Z" fill="#1B5E20"/>
  <path d="M24 27C22.8954 27 22 27.8954 22 29V30.5C22 31.3284 22.6716 32 23.5 32H24.5C25.3284 32 26 31.3284 26 30.5V29C26 27.8954 25.1046 27 24 27Z" fill="#795548"/>
  <path d="M18 34H30V36H18V34Z" fill="#795548"/>
  <path d="M22.5 28L19 30V34H22V30L22.5 28Z" fill="#4CAF50"/>
  <path d="M25.5 28L29 30V34H26V30L25.5 28Z" fill="#4CAF50"/>
  <path d="M23.5 15H24.5L27 16.5V19.5L24 21L21 19.5V16.5L23.5 15Z" fill="#FDD835"/>
  <path d="M23.5 33H24.5L25 35H23L23.5 33Z" fill="#795548"/>
</svg>
